<?xml version="1.0" standalone="no"?>
<!DOCTYPE svg PUBLIC "-//W3C//DTD SVG 20010904//EN"
 "http://www.w3.org/TR/2001/REC-SVG-20010904/DTD/svg10.dtd">
<svg version="1.0" xmlns="http://www.w3.org/2000/svg"
 width="626.000000pt" height="596.000000pt" viewBox="0 0 626.000000 596.000000"
 preserveAspectRatio="xMidYMid meet">

<g transform="translate(0.000000,596.000000) scale(0.100000,-0.100000)"
fill="#000000" stroke="none">
<path d="M2856 5810 c-632 -36 -1188 -184 -1501 -401 -95 -65 -195 -171 -230
-243 -50 -102 -49 -222 2 -324 15 -31 30 -60 31 -64 2 -5 -194 -8 -435 -8
l-439 0 -92 -482 c-51 -266 -93 -498 -92 -516 1 -119 153 -204 283 -158 l37
14 0 -1589 c0 -1114 3 -1590 11 -1594 6 -4 13 -4 17 0 4 4 8 697 10 1541 l2
1534 2670 0 2670 0 -1 -1207 c-1 -856 -5 -1194 -12 -1160 l-10 47 -456 0 -456
0 -29 -138 c-16 -75 -31 -143 -34 -149 -3 -9 -28 -13 -77 -13 -42 0 -77 -5
-80 -11 -4 -6 -4 -26 -1 -45 7 -34 7 -34 63 -34 31 0 53 -3 50 -7 -4 -3 -54
-5 -112 -4 l-105 2 0 -39 c0 -50 6 -52 126 -52 52 0 94 -3 94 -7 -1 -22 -30
-126 -36 -131 -4 -4 -4 1 -1 11 6 15 -2 17 -88 17 l-95 0 0 -46 0 -45 90 3
c72 2 89 0 85 -10 -3 -8 -5 -16 -5 -18 0 -2 -666 -4 -1480 -4 -1271 0 -1480
-2 -1480 -14 0 -8 -2 -20 -3 -28 -2 -7 -2 -10 0 -5 3 4 670 7 1484 7 l1479 0
-5 -22 c-16 -70 -55 -259 -55 -268 0 -7 25 -10 67 -8 l68 3 14 73 13 72 133 0
c141 0 145 -1 145 -51 0 -17 8 -19 59 -19 l60 0 -6 35 -6 35 132 0 c142 0 138
2 122 -60 -5 -19 -12 -47 -15 -62 l-6 -28 73 0 74 0 12 67 c7 38 17 89 23 116
l10 47 117 0 118 0 14 -75 13 -75 53 0 c29 0 53 4 53 9 0 5 -34 154 -75 332
l-75 322 0 1373 c0 756 2 1374 4 1374 2 0 20 -7 39 -15 107 -45 247 19 278
127 7 25 -11 134 -86 524 -52 270 -95 494 -95 498 0 3 -198 6 -440 6 -242 0
-440 2 -440 5 0 3 7 17 16 30 9 13 12 30 8 36 -4 7 -3 9 4 5 20 -12 47 84 46
166 0 68 -5 86 -38 152 -157 318 -780 569 -1581 635 -178 15 -530 21 -699 11z
m635 -30 c273 -22 472 -52 694 -106 342 -84 559 -176 736 -309 98 -73 153
-134 195 -215 24 -47 28 -67 28 -140 1 -77 -2 -92 -33 -154 -23 -46 -57 -92
-104 -140 -39 -39 -70 -75 -69 -79 1 -5 -2 -6 -7 -3 -5 4 -42 -15 -82 -40
-270 -175 -725 -304 -1254 -356 -79 -8 -270 -13 -490 -12 -332 0 -376 2 -565
27 -338 44 -570 98 -818 191 -224 83 -365 169 -481 292 -97 102 -125 162 -126
269 0 92 16 135 86 229 24 32 44 63 44 70 0 6 5 11 11 11 6 0 47 26 90 57 285
205 776 352 1329 398 202 16 206 16 451 18 126 1 291 -3 365 -8z m-2457 -1067
c-4 -27 -35 -244 -68 -483 l-61 -435 -189 -3 c-104 -1 -193 1 -197 5 -4 5 28
220 72 478 43 259 79 473 79 478 0 4 84 7 186 7 l185 0 -7 -47z m4556 45 c0
-2 36 -216 80 -477 43 -261 77 -478 74 -483 -3 -4 -90 -8 -194 -8 -189 0 -190
0 -194 23 -3 12 -33 218 -66 457 -33 239 -63 447 -66 463 l-6 27 186 0 c102 0
186 -1 186 -2z m-685 -628 c19 -168 35 -313 35 -322 0 -17 -16 -18 -189 -18
-111 0 -192 4 -196 10 -7 12 -43 394 -47 509 -2 67 0 85 12 92 8 4 58 26 110
49 52 22 122 55 155 74 l60 33 12 -61 c7 -34 28 -198 48 -366z m-3386 371 c53
-26 128 -60 168 -75 l72 -27 -5 -92 c-4 -96 -30 -401 -40 -474 l-5 -43 -190 0
c-143 0 -191 3 -194 13 -3 6 13 161 36 342 49 402 50 405 57 405 3 0 49 -22
101 -49z m748 -235 c168 -31 198 -36 231 -36 l35 0 -6 -210 c-3 -116 -9 -215
-12 -220 -4 -6 -82 -10 -197 -10 l-191 0 6 113 c14 236 30 377 44 377 7 0 48
-6 90 -14z m1833 -23 c0 -21 4 -63 9 -94 5 -30 13 -124 17 -207 l7 -152 -192
0 c-144 0 -193 3 -196 13 -3 6 -6 104 -7 216 l-3 205 165 27 c219 35 200 36
200 -8z m-775 -244 c4 -113 3 -195 -2 -200 -5 -5 -94 -8 -199 -7 l-189 3 3
160 c2 88 5 177 8 198 l6 37 183 0 182 0 8 -191z m-2425 -235 c0 -34 -46 -97
-90 -122 -58 -34 -147 -37 -199 -7 -41 24 -87 80 -96 118 l-7 27 196 0 c174 0
196 -2 196 -16z m810 6 c0 -51 -74 -132 -137 -149 -72 -20 -135 -6 -190 42
-33 29 -63 80 -63 107 0 6 68 10 195 10 127 0 195 -4 195 -10z m804 -12 c-40
-132 -175 -184 -297 -115 -39 22 -87 88 -87 120 0 15 20 17 196 17 l195 0 -7
-22z m805 -10 c-14 -51 -41 -81 -100 -111 -45 -24 -62 -28 -103 -23 -87 10
-176 83 -176 145 0 21 3 21 194 21 l195 0 -10 -32z m807 1 c-18 -94 -144 -160
-242 -129 -72 23 -117 68 -138 138 l-7 22 197 0 197 0 -7 -31z m814 16 c0 -50
-76 -128 -142 -145 -103 -28 -219 36 -242 133 l-6 27 195 0 c169 0 195 -2 195
-15z m810 5 c0 -51 -74 -132 -137 -149 -72 -20 -135 -6 -190 42 -33 29 -63 80
-63 107 0 6 68 10 195 10 127 0 195 -4 195 -10z m0 -2601 c0 -16 -211 -1003
-217 -1011 -2 -5 -22 -8 -44 -8 -45 0 -46 3 -25 92 8 31 11 59 8 62 -3 3 -160
6 -348 6 l-343 0 -10 -37 c-5 -21 -13 -56 -18 -78 -8 -38 -10 -40 -51 -43 -40
-3 -42 -2 -37 20 3 13 50 234 105 493 55 259 102 480 105 493 l5 22 435 0
c302 0 435 -3 435 -11z"/>
<path d="M2970 5461 c-74 -16 -106 -50 -95 -101 3 -16 17 -35 30 -44 22 -15
23 -20 27 -193 3 -147 7 -184 21 -211 10 -19 16 -36 13 -39 -13 -13 -40 19
-62 73 -13 32 -34 68 -46 79 -21 19 -23 27 -20 112 4 100 -6 132 -55 177 -53
50 -145 56 -323 24 -47 -9 -115 -19 -152 -22 -64 -6 -68 -5 -68 14 0 25 -33
92 -54 109 -12 10 -79 13 -284 13 -148 0 -279 -3 -291 -7 -26 -8 -51 -58 -44
-86 3 -10 21 -30 40 -45 l35 -26 -4 -185 c-3 -171 -4 -186 -23 -199 -47 -34
-55 -45 -55 -76 0 -38 9 -55 37 -71 11 -7 33 -21 49 -32 25 -18 44 -20 159
-19 91 0 139 5 160 15 28 13 30 19 33 73 3 64 -10 89 -54 100 -24 6 -39 39
-32 73 5 29 35 27 50 -4 7 -16 23 -29 36 -31 12 -2 22 -10 22 -18 0 -8 6 -17
14 -20 25 -10 55 15 66 54 12 46 13 206 1 250 -5 17 -7 32 -5 32 3 0 26 -16
51 -35 33 -25 52 -33 68 -29 37 9 51 -27 74 -184 26 -179 26 -173 -4 -208 -29
-32 -28 -81 1 -99 9 -5 28 -20 43 -31 14 -12 41 -25 59 -29 58 -12 234 26 252
56 10 15 1 121 -11 136 -6 7 -17 13 -25 13 -16 0 -20 6 -29 48 -12 57 21 39
55 -30 37 -77 43 -84 104 -130 45 -34 55 -38 111 -38 43 0 74 6 105 23 44 22
45 23 47 76 1 29 4 56 7 58 2 3 29 -14 58 -36 64 -48 117 -68 202 -77 118 -12
241 22 297 83 54 58 60 81 66 276 3 137 8 186 19 197 10 10 14 11 14 2 0 -7
14 -26 30 -44 35 -36 34 -32 15 -203 -8 -71 -15 -134 -15 -138 0 -4 -16 -23
-35 -43 -49 -49 -46 -73 15 -124 59 -50 94 -59 216 -61 121 -2 131 4 131 80 1
55 -2 63 -28 85 l-29 25 15 133 c13 113 31 178 49 178 3 0 18 -12 34 -27 64
-61 84 -74 106 -67 22 6 50 33 77 74 15 23 16 18 28 -111 13 -143 10 -164 -19
-172 -10 -2 -26 -16 -35 -31 -24 -36 -7 -72 54 -113 45 -31 52 -33 137 -33
101 0 199 18 237 43 24 16 26 21 23 82 -3 68 -19 94 -57 95 -9 0 -21 6 -27 13
-16 20 -44 289 -32 301 8 8 15 7 23 -4 29 -36 97 -80 125 -80 47 0 62 26 62
106 0 81 -21 133 -71 182 -38 37 -67 47 -107 37 -73 -18 -200 -35 -317 -41
l-130 -7 -36 -36 c-20 -20 -38 -42 -40 -48 -3 -10 -15 -7 -47 8 -73 36 -244
44 -315 14 -15 -6 -16 -4 -8 16 13 36 -6 75 -42 91 -19 8 -70 13 -129 13 -116
0 -151 -17 -156 -78 -3 -30 1 -39 25 -54 52 -33 53 -38 51 -190 -3 -138 -4
-143 -29 -168 -50 -50 -133 -42 -169 17 -17 28 -20 51 -20 140 l0 107 34 26
c31 23 34 30 34 78 0 63 -9 82 -50 103 -35 18 -209 28 -268 15z m678 -39 c31
-18 27 -44 -13 -79 -35 -31 -35 -32 -35 -117 0 -61 -4 -87 -14 -93 -8 -5 -15
-36 -19 -89 -5 -88 -20 -125 -64 -165 -59 -56 -88 -64 -223 -64 -119 0 -127 1
-177 29 -29 16 -60 40 -68 53 -11 16 -22 22 -34 18 -34 -11 -44 37 -42 212 l2
162 -31 34 c-35 41 -38 67 -9 93 18 16 40 20 143 22 154 4 196 -9 196 -60 0
-26 -6 -37 -29 -49 -18 -11 -30 -28 -34 -49 -10 -48 -8 -199 3 -245 8 -32 6
-42 -6 -52 -14 -10 -14 -14 2 -38 25 -39 71 -59 134 -59 105 0 160 54 160 158
0 48 -3 57 -15 52 -13 -5 -15 10 -15 100 l0 106 -41 38 c-47 43 -47 70 -1 89
54 21 186 17 230 -7z m992 3 c40 -21 76 -71 91 -128 12 -43 11 -49 -7 -74 -15
-20 -31 -29 -58 -31 -34 -3 -42 2 -79 42 -70 79 -82 62 -64 -96 12 -102 12
-108 -6 -108 -16 0 -17 -6 -11 -52 10 -83 27 -114 68 -129 20 -7 35 -18 33
-24 -8 -23 -104 -47 -207 -51 -127 -6 -151 3 -103 41 40 32 45 57 34 178 -7
80 -12 101 -30 118 -15 14 -21 32 -21 62 0 24 -7 52 -15 63 -15 19 -15 19 -33
-2 -9 -12 -24 -35 -33 -51 -15 -27 -19 -29 -55 -23 -76 14 -84 19 -84 60 0 43
19 93 50 133 18 23 29 27 73 27 70 0 356 36 387 49 34 13 37 13 70 -4z m-2459
-15 c40 -58 50 -130 23 -168 -22 -31 -50 -27 -87 12 -44 46 -67 56 -138 59
-74 3 -89 -12 -89 -90 l0 -53 38 0 c36 0 40 3 55 40 35 89 107 20 107 -103 0
-31 -3 -38 -17 -35 -14 3 -21 -6 -28 -36 -14 -51 -31 -56 -39 -12 -8 42 -21
53 -71 61 -67 11 -80 -7 -80 -108 0 -77 3 -88 24 -111 14 -14 33 -26 43 -26
27 0 22 -19 -8 -30 -28 -11 -252 -14 -278 -4 -22 9 -20 31 4 39 33 10 49 46
56 123 7 69 6 72 -15 72 -20 0 -21 4 -21 131 l0 131 -35 32 c-40 37 -44 59
-14 79 31 22 555 19 570 -3z m556 -97 c45 -22 72 -57 79 -105 9 -50 -1 -81
-37 -123 l-31 -35 45 -19 c44 -19 71 -49 95 -104 10 -24 10 -29 -8 -35 -20 -7
-20 -7 0 -40 12 -19 28 -32 40 -32 33 0 22 -20 -22 -40 -53 -24 -120 -25 -154
-3 -14 9 -37 38 -50 66 -14 27 -34 51 -43 54 -10 3 -28 18 -40 34 -24 32 -71
41 -71 13 0 -11 -6 -15 -20 -11 -17 4 -18 1 -14 -27 17 -91 38 -136 65 -136 5
0 9 -7 9 -15 0 -8 -16 -19 -37 -25 -50 -14 -187 -25 -209 -16 -16 6 -15 8 4
29 31 33 36 70 22 167 -10 70 -16 89 -31 93 -12 3 -20 18 -24 43 -12 81 -31
129 -54 140 -35 18 -44 30 -36 53 10 32 54 49 152 61 48 6 117 17 153 25 81
17 168 13 217 -12z m1258 1 c58 -28 59 -61 5 -97 -23 -15 -48 -27 -56 -27 -8
0 -14 -3 -14 -7 0 -5 -7 -69 -15 -143 -21 -196 -21 -206 16 -242 23 -24 27
-33 17 -39 -17 -11 -140 -11 -196 0 -60 12 -69 23 -39 53 28 28 43 89 52 213
3 44 8 97 12 119 5 35 4 38 -16 31 -17 -5 -21 -2 -21 16 0 13 -15 38 -32 56
-36 37 -33 56 13 81 37 20 224 11 274 -14z m-2036 -94 c-12 -33 -39 -41 -39
-12 0 21 18 42 36 42 10 0 10 -7 3 -30z"/>
<path d="M2505 5210 c-3 -6 -3 -42 1 -80 6 -64 9 -70 29 -70 38 0 58 33 53 85
-3 25 -11 52 -18 60 -14 17 -56 20 -65 5z m59 -66 c9 -23 -2 -54 -20 -54 -9 0
-14 10 -14 28 0 42 22 58 34 26z"/>
<path d="M4905 1148 c-2 -7 -41 -191 -86 -408 -44 -217 -83 -398 -86 -402 -2
-5 172 -8 386 -8 215 0 391 2 391 4 0 2 38 171 85 377 47 206 90 391 94 412
l9 37 -394 0 c-307 0 -396 -3 -399 -12z m106 -90 c9 -4 21 -2 27 4 8 8 16 7
27 -2 20 -17 12 -24 -31 -27 -20 -1 -42 -7 -50 -14 -11 -9 -14 -7 -14 9 0 28
12 56 19 45 3 -5 13 -12 22 -15z m363 -4 c25 -4 46 -10 46 -14 0 -10 -191 -12
-265 -2 l-60 7 90 6 c50 3 102 6 116 7 14 1 47 -1 73 -4z m231 -9 c-10 -9 -30
-13 -45 -11 -14 2 -38 5 -55 6 -52 3 2 19 65 19 51 0 53 -1 35 -14z m-498
-131 c2 -7 -18 -12 -54 -13 -80 -4 -96 -6 -111 -15 -7 -4 -12 -2 -12 8 0 8 7
19 15 23 21 12 158 10 162 -3z m223 -3 c0 -19 -94 -28 -159 -15 -61 12 -30 24
64 24 52 0 95 -4 95 -9z m70 -1 c0 -5 -4 -10 -10 -10 -5 0 -10 5 -10 10 0 6 5
10 10 10 6 0 10 -4 10 -10z m183 -1 c-7 -7 -24 -8 -54 -1 l-44 10 55 1 c39 1
51 -2 43 -10z m-673 -137 c0 -12 2 -14 8 -4 6 8 19 10 42 6 30 -7 32 -8 15
-21 -11 -7 -27 -11 -36 -8 -10 3 -20 1 -24 -5 -13 -21 -25 -9 -25 26 0 21 4
33 10 29 6 -3 10 -14 10 -23z m319 -12 c40 0 52 -3 41 -10 -17 -11 -105 -13
-203 -3 -94 8 -65 26 32 19 41 -3 99 -6 130 -6z m131 0 c0 -5 -4 -10 -10 -10
-5 0 -10 5 -10 10 0 6 5 10 10 10 6 0 10 -4 10 -10z m190 0 c0 -5 -18 -10 -40
-10 -22 0 -40 5 -40 10 0 6 18 10 40 10 22 0 40 -4 40 -10z m-489 -171 c117 1
150 -2 147 -11 -4 -10 -46 -13 -171 -14 -125 0 -169 -3 -182 -14 -14 -12 -18
-12 -26 1 -11 18 -11 21 1 39 8 12 12 12 18 2 7 -10 11 -10 22 3 9 11 16 12
26 4 9 -7 67 -11 165 -10z m444 -8 c6 -1 4 -5 -3 -10 -17 -10 -162 -14 -185
-5 -37 14 -13 19 81 18 53 -1 102 -2 107 -3z m-670 -143 c26 -12 29 -33 4 -33
-8 0 -20 -4 -27 -9 -18 -11 -21 -6 -15 27 6 31 4 31 38 15z m529 -8 c7 -7 3
-10 -9 -11 -11 0 -38 -2 -60 -3 -42 -4 -89 9 -82 21 7 11 139 5 151 -7z m-174
1 c0 -5 -8 -12 -17 -15 -32 -8 -293 -5 -293 4 0 13 39 17 183 19 73 0 127 -3
127 -8z m295 -11 c-3 -5 -24 -10 -45 -10 -21 0 -42 5 -45 10 -4 6 13 10 45 10
32 0 49 -4 45 -10z"/>
<path d="M712 3202 c-10 -7 -12 -191 -10 -888 l3 -879 2433 -3 2432 -2 -2 887
-3 888 -2420 2 c-1331 2 -2426 -1 -2433 -5z m4768 -872 l0 -830 -2352 2 -2353
3 -3 815 c-1 448 0 821 3 828 3 9 484 12 2355 12 l2350 0 0 -830z"/>
<path d="M940 3132 c0 -25 30 -32 145 -32 76 0 115 -4 106 -9 -8 -5 -59 -9
-113 -7 l-98 2 0 -26 c0 -20 2 -22 11 -10 8 12 10 12 8 -5 -3 -43 1 -57 16
-52 19 8 30 -10 15 -28 -7 -9 -8 -20 -2 -32 6 -10 15 -31 21 -46 6 -15 15 -26
19 -23 4 2 8 -11 8 -29 0 -36 9 -53 21 -41 4 3 1 12 -5 18 -15 15 -16 32 -2
23 6 -3 10 4 11 17 0 22 1 22 9 3 8 -19 9 -19 9 2 1 12 6 25 12 28 6 4 8 13 5
21 -3 8 -1 14 3 14 12 0 23 32 14 39 -16 12 -14 34 2 27 12 -4 20 3 29 27 17
43 27 71 27 77 0 3 7 9 15 13 8 4 14 15 14 22 0 13 -26 15 -150 15 -82 0 -150
-4 -150 -8z m130 -222 c0 -5 -2 -10 -4 -10 -3 0 -8 5 -11 10 -3 6 -1 10 4 10
6 0 11 -4 11 -10z"/>
<path d="M1350 3132 c0 -26 30 -32 152 -32 117 0 128 2 138 20 10 20 8 20
-140 20 -82 0 -150 -4 -150 -8z"/>
<path d="M1762 3128 c3 -10 44 -14 145 -16 119 -2 142 0 147 13 5 13 -14 15
-145 15 -116 0 -150 -3 -147 -12z"/>
<path d="M2194 3068 c18 -40 52 -122 76 -181 23 -60 46 -105 50 -100 5 4 39
86 78 181 l70 172 -154 0 -153 0 33 -72z"/>
<path d="M2599 3083 c15 -32 50 -113 76 -180 27 -68 49 -122 51 -120 1 1 28
65 59 142 31 77 65 157 76 178 l19 37 -155 0 -154 0 28 -57z"/>
<path d="M3417 3085 c15 -30 29 -53 31 -51 2 2 -4 18 -13 35 l-16 31 130 0
c120 0 131 2 141 20 10 20 8 20 -145 20 l-155 0 27 -55z"/>
<path d="M3809 3123 c8 -16 23 -18 147 -13 97 4 139 9 142 18 3 9 -31 12 -148
12 -140 0 -150 -1 -141 -17z"/>
<path d="M4220 3120 c10 -18 21 -20 140 -20 119 0 130 2 140 20 10 20 8 20
-140 20 -148 0 -150 0 -140 -20z"/>
<path d="M5032 3123 c3 -16 19 -18 140 -21 129 -2 138 -1 148 18 11 20 8 20
-140 20 -139 0 -151 -1 -148 -17z"/>
<path d="M5068 3078 c-6 -18 16 -79 28 -74 17 7 37 -33 24 -49 -6 -7 -7 -20
-4 -30 6 -13 9 -14 16 -3 7 9 8 8 4 -5 -3 -11 0 -33 8 -50 8 -18 18 -43 22
-56 6 -24 8 -22 31 23 23 45 23 49 8 67 -16 17 -16 19 -1 34 9 9 16 22 16 29
0 18 50 83 50 65 1 -11 30 45 30 57 0 2 -51 4 -114 4 -78 0 -116 -4 -118 -12z
m122 -187 c0 -5 -7 -14 -15 -21 -13 -10 -15 -9 -15 9 0 12 6 21 15 21 8 0 15
-4 15 -9z"/>
<path d="M5231 2943 c-1 -6 -4 -20 -7 -30 -5 -17 -5 -17 6 0 6 10 9 23 6 30
-3 9 -5 9 -5 0z"/>
<path d="M4291 2354 c-79 -29 -141 -92 -157 -161 l-6 -28 16 23 c10 12 27 22
38 22 21 0 21 0 3 14 -18 13 -18 15 -2 40 10 14 25 26 35 26 10 0 33 11 52 25
32 24 41 25 121 21 94 -4 111 -10 149 -51 25 -27 25 -27 3 -21 -29 9 -115 -3
-107 -15 3 -5 -5 -9 -17 -9 -17 0 -19 3 -10 14 21 26 -44 48 -78 27 -11 -7 -9
-11 9 -21 17 -9 25 -9 34 0 8 8 7 10 -6 5 -11 -4 -18 -2 -18 4 0 13 29 14 49
2 11 -7 10 -11 -5 -19 -17 -10 -16 -11 8 -17 14 -4 35 -2 46 4 31 16 64 13 92
-9 14 -11 30 -20 37 -20 7 0 17 -9 23 -19 14 -26 13 -36 -2 -24 -7 6 -42 13
-78 16 -39 3 -55 2 -40 -3 23 -7 23 -8 3 -9 -12 -1 -24 -5 -28 -11 -3 -5 13
-7 42 -4 l48 6 -54 -34 c-33 -20 -68 -53 -88 -82 -47 -69 -67 -69 -99 -3 -19
39 -35 57 -65 71 -53 26 -68 44 -32 40 28 -4 28 -4 3 5 -14 4 -64 5 -110 1
-92 -7 -147 -29 -189 -74 -22 -24 -31 -26 -103 -26 l-79 0 15 -22 c36 -50 -1
-129 -67 -144 -19 -4 -26 -9 -17 -12 74 -23 109 -66 96 -116 -5 -19 -15 -27
-39 -31 -23 -3 -585 -1 -672 3 -5 1 -48 0 -94 -1 -83 -2 -85 -1 -91 23 -12 47
10 92 56 118 14 8 11 14 -21 44 -30 27 -37 41 -37 71 0 21 6 45 13 53 11 14 8
15 -22 12 l-34 -3 -6 -105 -5 -105 -2 108 -2 107 -62 -2 -63 -1 50 -6 c62 -7
68 -25 29 -84 -15 -23 -20 -36 -12 -29 13 10 17 9 24 -5 6 -14 9 -7 14 27 4
26 7 -16 7 -100 0 -101 -2 -124 -6 -75 -6 72 -21 69 -21 -4 l0 -38 -53 -6
c-68 -9 -758 -9 -808 -1 -23 4 -40 13 -42 23 -3 9 -5 4 -6 -11 -2 -42 -21 -33
-21 10 0 20 -5 44 -10 52 -7 11 -10 0 -10 -37 0 -29 -4 -53 -8 -53 -4 0 -8 74
-8 165 1 91 4 165 8 165 4 0 8 -15 10 -32 3 -37 21 -45 26 -12 3 21 39 44 68
44 9 0 14 7 12 18 -3 11 -12 16 -26 15 -56 -6 16 40 78 50 20 3 18 5 -8 6 -42
1 -96 -24 -121 -55 -10 -13 -28 -24 -40 -24 -20 0 -21 -6 -22 -82 -1 -46 0
-118 1 -160 1 -67 -1 -78 -15 -78 -14 0 -16 6 -11 26 19 74 19 85 0 99 -11 8
-26 15 -34 15 -42 1 -90 22 -90 39 0 34 24 44 77 33 26 -6 50 -9 52 -7 2 3 4
21 5 42 1 41 -16 54 -89 70 -39 8 -60 36 -38 52 4 3 5 24 2 46 l-6 40 -2 -37
-1 -38 -46 0 c-37 0 -51 -5 -76 -30 -16 -17 -33 -30 -37 -30 -4 0 -8 -7 -8
-15 0 -8 3 -15 7 -15 8 0 22 -83 20 -112 -5 -66 -4 -136 3 -155 8 -21 5 -23
-28 -23 -32 0 -36 3 -30 18 4 9 11 34 15 54 9 47 -7 64 -72 73 -63 10 -81 30
-48 57 18 15 32 18 60 13 19 -4 39 -7 44 -8 6 -1 13 15 16 36 6 32 3 40 -14
52 -11 8 -35 15 -52 15 -41 0 -84 33 -66 51 13 14 17 93 4 85 -5 -3 -7 -19 -4
-36 l4 -30 -50 0 c-43 0 -54 -4 -79 -30 -15 -17 -28 -36 -28 -43 0 -15 -13
-17 -40 -6 -11 4 -36 10 -56 14 -46 7 -65 27 -47 46 9 9 11 28 7 54 l-6 40 -2
-37 -1 -38 -46 0 c-37 0 -51 -5 -76 -30 -16 -16 -36 -30 -44 -30 -11 0 -14
-21 -14 -105 0 -98 -1 -105 -20 -105 -19 0 -20 -7 -20 -165 l0 -165 2330 0
2330 0 0 165 c0 103 -4 165 -10 165 -6 0 -10 42 -10 106 l0 105 -117 -4 c-65
-2 -125 0 -134 4 -10 5 -16 3 -16 -6 0 -7 6 -11 14 -8 7 3 13 0 13 -7 0 -8 -9
-11 -26 -7 -18 3 -22 1 -15 -6 8 -8 21 -8 44 1 45 16 82 15 97 -3 7 -8 18 -15
26 -15 14 0 44 -27 44 -40 0 -4 -19 -6 -42 -3 -40 4 -42 3 -24 -11 18 -15 38
-20 59 -17 4 0 7 -6 7 -15 0 -13 -7 -15 -36 -11 -30 5 -36 3 -43 -16 -11 -28
0 -32 38 -13 38 20 41 20 41 -4 0 -20 -71 -65 -83 -53 -4 3 -18 -2 -31 -11
-14 -9 -47 -16 -73 -17 -35 0 -43 -3 -28 -9 14 -5 2 -8 -38 -8 -41 0 -69 5
-90 19 -18 10 -46 19 -64 19 -33 0 -63 22 -63 45 0 11 6 11 32 2 23 -9 32 -9
35 -1 3 8 15 9 41 3 20 -4 38 -6 41 -3 2 2 -2 4 -10 4 -11 1 -10 4 3 13 14 11
4 13 -63 11 -84 -2 -99 5 -73 30 10 11 34 16 75 16 33 0 59 4 59 10 0 14 -114
12 -128 -2 -9 -9 -12 -8 -12 5 0 10 11 29 25 42 17 15 22 24 13 27 -16 6 16
58 36 58 7 0 30 11 50 25 39 27 56 30 153 27 54 -2 67 -7 108 -38 26 -19 45
-30 43 -23 -8 23 -84 69 -135 81 -46 11 -52 16 -62 48 -14 48 -73 116 -125
143 -57 30 -164 30 -222 0 -54 -29 -110 -92 -125 -142 -7 -23 -18 -41 -24 -41
-7 0 -20 21 -30 46 -48 127 -189 194 -314 148z m730 -34 c29 -15 59 -40 59
-50 0 -4 -12 -5 -28 -2 -15 2 -47 -3 -71 -12 -30 -10 -50 -12 -62 -5 -10 5
-24 9 -31 9 -7 -1 0 -8 15 -16 24 -13 36 -14 77 -3 44 11 51 10 86 -11 41 -24
64 -47 64 -63 0 -5 -6 -4 -14 3 -23 19 -289 16 -351 -4 l-50 -16 50 5 c28 2
54 4 58 4 5 1 6 5 3 10 -8 12 69 5 94 -9 10 -5 25 -10 32 -9 7 0 4 4 -7 9 -18
8 -17 9 8 9 16 1 26 -3 22 -9 -3 -6 4 -10 16 -10 22 0 22 0 3 15 -18 14 -18
14 9 15 19 0 26 -4 21 -12 -5 -8 0 -9 14 -6 36 10 35 -10 -1 -21 -39 -13 -110
-80 -126 -119 -18 -44 -51 -39 -80 10 -17 30 -19 40 -8 35 13 -5 43 1 107 20
11 3 9 8 -10 18 -31 17 -64 19 -104 4 -27 -10 -36 -8 -68 12 -21 13 -37 30
-38 38 0 9 -8 11 -25 7 -28 -7 -30 -4 -15 25 7 11 21 19 38 19 25 1 26 1 7 12
-11 6 -22 12 -24 14 -9 8 31 54 47 54 10 0 34 11 53 25 32 24 40 26 120 22 47
-3 97 -10 110 -17z m-877 -190 c29 0 55 -9 84 -27 49 -32 65 -57 27 -43 -15 6
-25 6 -25 1 0 -14 -83 -6 -108 10 -18 11 -26 12 -43 1 -12 -7 -24 -11 -27 -8
-3 3 1 6 8 6 7 0 11 3 8 6 -8 8 -48 -14 -48 -26 0 -6 5 -10 11 -10 5 0 7 5 3
11 -8 13 25 4 68 -17 30 -15 52 -18 44 -6 -2 4 16 9 41 10 33 1 57 -5 89 -24
54 -32 58 -52 9 -46 -48 6 -44 -12 5 -27 44 -13 45 -36 1 -28 -14 3 -42 -2
-61 -10 -19 -8 -64 -17 -100 -20 -36 -2 -69 -9 -75 -14 -7 -7 -2 -9 15 -5 14
3 51 8 84 10 32 3 64 10 72 17 11 9 14 8 14 -5 0 -19 7 -20 40 -1 32 18 50 19
50 1 0 -20 -53 -56 -82 -56 -12 0 -32 -7 -42 -15 -11 -8 -32 -15 -48 -15 -15
0 -28 -4 -28 -10 0 -5 -10 -10 -22 -9 -22 0 -22 1 -3 10 17 8 16 8 -5 3 -67
-16 -80 -16 -113 5 -19 12 -50 21 -70 21 -26 0 -40 6 -51 22 -22 31 -20 41 4
28 23 -12 123 2 146 21 9 7 33 9 61 6 34 -4 42 -2 29 5 -10 5 -36 7 -59 3 -85
-13 -197 -13 -197 0 0 7 6 17 13 23 21 17 204 29 297 19 44 -5 45 -5 5 2 -22
5 -31 9 -20 10 54 6 73 6 69 -1 -3 -4 2 -8 10 -8 9 0 13 6 10 13 -3 10 -33 14
-114 14 -68 0 -107 -3 -103 -9 3 -6 -4 -7 -18 -3 -19 5 -21 4 -9 -5 12 -9 1
-10 -47 -7 -37 3 -65 1 -72 -6 -15 -15 -21 -5 -14 22 3 12 17 27 32 32 20 8
22 12 11 19 -22 14 -3 39 51 68 24 14 55 31 69 39 14 7 38 11 54 8 16 -3 47
-5 70 -5z m611 -28 c38 -26 41 -27 58 -10 17 18 61 23 93 11 13 -5 6 -10 -27
-19 -31 -10 -45 -10 -50 -2 -5 7 -12 4 -20 -10 -9 -15 -18 -18 -34 -12 -13 5
-36 2 -60 -7 -22 -9 -50 -16 -62 -17 -13 0 -18 -5 -13 -10 6 -6 19 -5 35 2 39
18 84 14 112 -8 14 -11 32 -20 39 -20 8 0 14 -2 14 -4 0 -2 3 -11 6 -19 4 -12
-2 -14 -33 -10 -21 2 -49 0 -63 -6 -24 -9 -24 -10 10 -11 48 -3 81 -13 80 -25
0 -5 -14 -10 -31 -11 -19 0 -35 -7 -41 -18 -15 -26 -1 -32 31 -13 36 21 51 22
51 2 0 -18 -75 -69 -89 -60 -6 3 -21 -1 -33 -9 -12 -9 -35 -16 -50 -16 -15 0
-30 -4 -33 -10 -3 -5 -14 -10 -23 -9 -14 0 -14 2 3 10 17 8 16 8 -5 3 -65 -16
-78 -15 -111 5 -19 12 -48 21 -66 21 -34 0 -63 22 -63 48 0 12 3 13 12 4 18
-18 45 -14 51 8 5 18 2 19 -34 14 -32 -5 -39 -4 -39 9 0 24 32 37 92 37 80 0
86 15 8 18 -39 1 -71 -2 -75 -8 -11 -18 -23 -11 -18 11 3 11 17 27 30 36 18
12 21 18 11 24 -18 12 1 40 38 58 16 7 40 21 54 30 37 24 55 27 134 23 57 -3
79 -9 111 -30z m-3889 -217 c0 -91 -3 -165 -8 -165 -4 0 -8 74 -8 165 0 91 4
165 8 165 4 0 8 -74 8 -165z m1974 -1 c0 -107 -3 -163 -10 -159 -6 4 -10 68
-10 159 0 134 3 166 17 166 2 0 3 -75 3 -166z m938 -159 c-5 -5 -7 67 -6 160
l2 170 6 -160 c3 -88 2 -164 -2 -170z m62 160 c0 -140 -2 -165 -15 -165 -13 0
-15 25 -15 165 0 140 2 165 15 165 13 0 15 -25 15 -165z m1590 0 c0 -150 -2
-165 -17 -165 -17 0 -18 13 -15 165 2 136 5 165 17 165 13 0 15 -27 15 -165z
m-4247 49 c10 -10 -13 -45 -24 -38 -7 4 -7 -1 0 -14 13 -24 -1 -38 -18 -18 -7
8 -34 17 -62 21 -63 9 -82 36 -44 61 23 15 40 15 96 -2 13 -3 19 5 24 33 l8
38 7 -38 c4 -20 10 -40 13 -43z m3179 1 c-2 -19 -8 -35 -13 -35 -5 0 -9 16 -9
35 0 22 5 35 13 35 9 0 12 -11 9 -35z m528 23 c0 -25 -12 -58 -21 -58 -5 0 -9
16 -9 35 0 24 5 35 15 35 8 0 15 -6 15 -12z m-3705 -200 c6 -15 2 -18 -19 -18
-30 0 -30 -3 -14 58 l12 47 7 -35 c3 -19 10 -43 14 -52z m3109 31 c-9 -10 -23
-19 -29 -19 -7 0 -24 -9 -38 -20 -21 -17 -40 -20 -121 -20 -52 0 -119 5 -148
12 -29 6 -55 11 -58 11 -3 -1 -7 7 -7 18 -2 24 42 27 73 5 23 -16 171 -20 190
-5 6 5 27 11 46 13 20 3 51 14 69 25 38 23 52 11 23 -20z m526 2 c-6 -12 -18
-21 -26 -21 -9 0 -29 -10 -46 -21 -27 -20 -39 -21 -151 -17 -121 5 -171 17
-181 44 -8 21 48 18 85 -5 23 -14 38 -17 60 -11 16 5 44 6 63 3 20 -3 45 1 64
11 17 9 40 16 51 16 11 0 35 9 53 20 35 21 46 14 28 -19z m540 31 c0 -16 -32
-52 -46 -52 -8 0 -28 -10 -44 -21 -26 -20 -38 -21 -154 -17 -106 3 -130 7
-153 24 -15 11 -28 25 -30 30 -5 14 56 5 82 -12 27 -17 162 -16 197 2 15 8 37
14 50 14 13 0 37 9 53 20 32 21 45 25 45 12z m-3551 -197 l-1 -75 -476 2 -477
3 -3 72 c-2 60 0 72 15 75 9 2 225 2 480 0 l463 -2 -1 -75z m980 0 l-1 -75
-478 0 -477 0 -1 75 -1 75 479 0 480 0 -1 -75z m991 0 l0 -75 -477 2 -477 3
-3 60 c-2 33 -1 66 2 73 3 9 109 12 480 12 l475 0 0 -75z m1648 0 l-1 -75
-808 0 -809 0 0 75 0 75 810 0 809 0 -1 -75z"/>
<path d="M4855 2280 c-17 -7 -16 -8 10 -9 17 0 46 -2 65 -6 l35 -6 -34 16
c-37 17 -47 17 -76 5z"/>
<path d="M4814 2259 c-3 -6 -20 -19 -38 -30 -17 -10 -27 -19 -22 -19 14 0 76
41 76 51 0 12 -7 11 -16 -2z"/>
<path d="M3990 2035 c-7 -8 -27 -19 -44 -24 -17 -5 -23 -10 -13 -10 21 -1 77
29 77 41 0 12 -6 10 -20 -7z"/>
<path d="M4017 1859 c7 -7 15 -10 18 -7 3 3 -2 9 -12 12 -14 6 -15 5 -6 -5z"/>
<path d="M4848 2093 c6 -2 18 -2 25 0 6 3 1 5 -13 5 -14 0 -19 -2 -12 -5z"/>
<path d="M4615 2073 c11 -3 24 -9 30 -14 5 -5 13 -9 19 -9 5 0 1 7 -10 15 -10
8 -28 14 -39 14 l-20 -1 20 -5z"/>
<path d="M4526 2044 c-20 -14 -36 -27 -36 -31 0 -3 12 3 27 13 15 9 41 20 58
24 27 5 28 7 8 12 -14 4 -34 -3 -57 -18z"/>
<path d="M4458 2003 c7 -3 16 -2 19 1 4 3 -2 6 -13 5 -11 0 -14 -3 -6 -6z"/>
<path d="M4564 1969 c-7 -12 80 -16 113 -5 29 10 26 11 -38 12 -39 0 -72 -3
-75 -7z"/>
<path d="M4673 1943 c9 -2 25 -2 35 0 9 3 1 5 -18 5 -19 0 -27 -2 -17 -5z"/>
<path d="M4600 1900 c0 -5 10 -10 23 -10 18 0 19 2 7 10 -19 13 -30 13 -30 0z"/>
<path d="M4500 1893 c-39 -7 -51 -26 -13 -21 18 2 30 1 27 -3 -8 -14 33 -20
62 -9 16 6 42 10 59 9 43 -2 116 12 109 22 -2 4 -17 4 -31 -2 -15 -5 -32 -8
-38 -5 -11 4 -53 -3 -120 -18 -20 -5 -26 -5 -16 2 13 9 7 34 -7 31 -4 -1 -18
-4 -32 -6z"/>
<path d="M4266 2239 c-43 -32 -40 -40 2 -10 15 10 34 20 42 23 7 2 10 7 5 10
-6 3 -28 -8 -49 -23z"/>
<path d="M2320 2190 c-32 -8 -61 -33 -85 -74 -9 -17 -15 -16 -92 3 -45 12 -94
20 -110 20 -26 -2 -26 -2 -3 -6 14 -2 65 -13 113 -25 79 -18 94 -19 148 -8 52
11 62 11 70 -1 14 -23 11 -43 -19 -102 -16 -32 -22 -51 -14 -44 21 17 52 87
52 117 0 36 -14 53 -43 53 -23 0 -24 1 -12 14 8 8 18 12 23 9 4 -2 14 0 22 5
11 7 6 9 -20 8 -50 -2 -57 0 -40 11 8 5 38 10 65 10 54 0 116 -25 216 -85 31
-19 63 -35 70 -34 8 0 5 4 -7 9 -11 4 -46 25 -78 45 -105 67 -186 91 -256 75z"/>
<path d="M4286 2182 c-3 -6 -2 -13 4 -17 5 -3 10 -2 10 4 0 6 15 8 38 4 20 -3
51 -5 67 -5 23 1 26 -1 15 -8 -13 -8 -13 -10 1 -10 9 0 19 7 23 15 4 11 -2 15
-22 15 -15 0 -50 3 -78 6 -32 4 -54 2 -58 -4z"/>
<path d="M4245 2160 c3 -5 13 -10 21 -10 8 0 12 5 9 10 -3 6 -13 10 -21 10 -8
0 -12 -4 -9 -10z"/>
<path d="M4300 2110 c-10 -6 -11 -10 -2 -10 6 0 12 -9 12 -21 0 -15 4 -19 16
-15 9 3 28 9 42 12 56 12 58 15 32 29 -29 17 -79 19 -100 5z m75 -10 l30 -8
-30 -1 c-17 0 -36 -6 -43 -13 -9 -9 -12 -9 -12 0 0 7 6 12 13 13 6 0 3 4 -8 9
l-20 9 20 -1 c11 0 34 -4 50 -8z"/>
<path d="M5090 2070 c-12 -8 -12 -10 2 -15 9 -4 29 -5 45 -2 26 4 26 4 -7 7
l-35 3 35 7 c35 7 35 7 5 9 -16 0 -37 -3 -45 -9z"/>
<path d="M3026 2052 c6 -4 13 -13 15 -20 3 -8 8 -5 17 8 11 18 10 20 -15 20
-16 0 -23 -4 -17 -8z"/>
<path d="M3218 2053 c7 -3 16 -2 19 1 4 3 -2 6 -13 5 -11 0 -14 -3 -6 -6z"/>
<path d="M3385 2050 c4 -6 11 -8 16 -5 14 9 11 15 -7 15 -8 0 -12 -5 -9 -10z"/>
<path d="M3550 2056 c0 -2 6 -9 14 -15 10 -9 15 -8 20 4 4 10 -1 15 -14 15
-11 0 -20 -2 -20 -4z"/>
<path d="M5035 2034 c-17 -13 -39 -24 -50 -25 -17 -1 -17 -2 -3 -6 10 -2 30 4
45 15 16 10 35 21 43 24 7 2 10 7 5 10 -6 3 -24 -5 -40 -18z"/>
<path d="M5064 1973 c3 -4 14 -8 24 -8 93 -10 137 -6 72 6 -57 10 -105 11 -96
2z"/>
<path d="M5228 1973 c12 -2 30 -2 40 0 9 3 -1 5 -23 4 -22 0 -30 -2 -17 -4z"/>
<path d="M5198 1943 c12 -2 30 -2 40 0 9 3 -1 5 -23 4 -22 0 -30 -2 -17 -4z"/>
<path d="M5088 1903 c12 -2 30 -2 40 0 9 3 -1 5 -23 4 -22 0 -30 -2 -17 -4z"/>
<path d="M5241 1893 c-26 -11 -40 -12 -58 -4 -30 14 -43 14 -23 1 12 -8 8 -10
-15 -11 -26 -2 -25 -3 10 -8 22 -4 48 -3 57 1 9 4 25 8 36 8 11 0 22 7 26 15
3 8 4 15 3 14 -1 0 -17 -7 -36 -16z"/>
<path d="M5070 1860 c-13 -9 -13 -10 0 -10 8 0 22 5 30 10 13 9 13 10 0 10 -8
0 -22 -5 -30 -10z"/>
<path d="M843 1001 c-12 -11 -23 -26 -26 -33 -3 -9 -10 -6 -22 10 -18 24 -63
30 -83 10 -7 -7 -12 -22 -12 -35 0 -14 -6 -23 -15 -23 -9 0 -18 -7 -21 -15 -5
-12 -25 -15 -95 -15 l-89 0 0 -45 c0 -41 2 -45 25 -45 15 0 25 -6 25 -15 0 -8
12 -26 26 -40 37 -37 26 -55 -36 -55 l-50 0 0 -45 c0 -45 0 -45 35 -45 24 0
35 -5 35 -14 0 -8 6 -17 13 -19 9 -4 9 -7 -1 -15 -16 -11 -33 -80 -23 -87 4
-2 6 -18 3 -35 -4 -28 -2 -30 28 -30 22 0 31 -4 27 -12 -2 -7 -1 -23 4 -35 6
-18 16 -23 44 -23 19 0 35 -5 35 -10 0 -6 21 -10 48 -10 26 0 81 0 122 0 212
-2 270 2 278 16 7 12 14 13 36 4 16 -6 37 -8 46 -5 10 3 20 0 23 -7 3 -10 29
-12 93 -11 49 1 98 2 109 2 11 0 29 0 40 0 11 0 35 1 53 1 17 -1 32 4 32 9 0
5 12 11 28 13 22 2 27 8 26 28 -1 28 11 40 44 40 17 0 22 6 22 25 0 14 -4 25
-9 25 -5 0 -11 8 -15 18 -3 9 -8 22 -11 27 -3 6 17 9 55 7 l60 -4 0 46 0 46
-65 0 c-39 0 -65 4 -65 11 0 5 5 7 11 3 8 -4 10 9 8 45 l-4 51 58 0 57 0 0 45
0 45 -90 0 -90 0 0 -30 c0 -34 -15 -40 -25 -10 -3 11 -11 20 -16 20 -5 0 -9 7
-9 15 0 11 16 15 68 17 l67 3 0 40 0 40 -92 3 -92 3 -4 -38 -4 -38 -1 43 -2
42 50 0 50 0 0 39 0 39 -77 4 c-43 2 -84 2 -90 0 -8 -3 -13 -21 -13 -42 0 -37
1 -39 38 -43 20 -2 -5 -4 -55 -5 l-93 -2 0 -40 c0 -22 -5 -40 -11 -40 -6 0 -9
15 -7 38 l3 37 -67 3 -67 3 -3 47 -3 47 -78 1 c-43 1 -84 7 -90 13 -18 18 -81
13 -104 -8z m79 -71 c7 -11 23 -20 35 -20 14 0 23 -6 23 -15 0 -18 2 -18 34
-4 33 15 59 -4 50 -35 -3 -12 -7 -28 -10 -36 -3 -13 3 -15 32 -12 59 7 74 -44
28 -93 -23 -25 -24 -29 -10 -44 24 -26 19 -57 -10 -80 -29 -23 -93 -28 -111
-10 -9 9 -18 6 -37 -9 -29 -22 -56 -20 -81 8 -17 18 -18 18 -41 -9 -13 -16
-35 -32 -49 -35 -31 -8 -65 9 -65 32 0 14 -8 17 -40 15 -22 -1 -45 -5 -51 -8
-14 -9 -49 24 -49 45 0 9 9 25 19 34 11 10 17 25 14 36 -3 12 2 23 15 31 19
12 19 13 -7 35 -22 19 -24 26 -16 50 9 24 17 29 45 30 51 2 70 13 70 41 0 62
54 86 86 38 l16 -25 28 30 c32 35 64 39 82 10z m482 -155 c8 -8 22 -15 30 -15
9 0 16 -4 16 -9 0 -6 12 -9 28 -8 24 2 27 -1 27 -31 0 -26 3 -32 16 -29 21 6
49 -10 49 -27 0 -7 -9 -25 -20 -39 -13 -16 -16 -28 -10 -32 20 -12 10 -54 -16
-72 -21 -14 -31 -15 -56 -5 -24 9 -33 8 -45 -3 -18 -19 -23 -19 -52 1 -21 15
-24 15 -42 -5 -24 -25 -64 -28 -77 -4 -7 11 -24 16 -53 17 -49 1 -63 24 -35
55 9 10 13 21 10 24 -4 4 -1 13 6 22 10 13 10 19 -4 33 -9 10 -16 24 -16 30 0
13 35 34 43 26 13 -14 46 9 49 33 2 14 11 31 21 37 15 9 22 7 36 -10 l17 -21
21 23 c25 28 36 30 57 9z m-274 -254 c0 -12 -20 -25 -27 -18 -7 7 6 27 18 27
5 0 9 -4 9 -9z m422 -63 c-7 -7 -12 -8 -12 -2 0 14 12 26 19 19 2 -3 -1 -11
-7 -17z m-814 -10 c-6 -18 -28 -21 -28 -4 0 9 7 16 16 16 9 0 14 -5 12 -12z
m532 -39 c0 -5 -4 -9 -10 -9 -5 0 -10 7 -10 16 0 8 5 12 10 9 6 -3 10 -10 10
-16z"/>
<path d="M1930 955 l0 -45 89 0 c50 0 92 3 94 8 2 4 2 24 0 45 l-5 37 -89 0
-89 0 0 -45z"/>
<path d="M2370 955 l0 -45 91 0 90 0 -3 43 -3 42 -87 3 -88 3 0 -46z"/>
<path d="M2920 955 l0 -46 93 3 92 3 3 41 3 42 -95 1 -96 1 0 -45z"/>
<path d="M3360 955 l0 -45 96 0 95 0 -3 43 -3 42 -92 3 -93 3 0 -46z"/>
<path d="M3917 994 c-4 -4 -7 -25 -7 -46 l0 -38 96 0 95 0 -3 43 -3 42 -85 3
c-47 1 -89 0 -93 -4z"/>
<path d="M4350 955 l0 -45 96 0 95 0 -3 43 -3 42 -92 3 -93 3 0 -46z"/>
<path d="M1677 893 c-4 -3 -7 -24 -7 -45 l0 -38 95 0 95 0 0 45 0 45 -88 0
c-49 0 -92 -3 -95 -7z"/>
<path d="M2060 855 l0 -45 96 0 95 0 -3 43 -3 42 -92 3 -93 3 0 -46z"/>
<path d="M2260 855 l0 -45 95 0 95 0 0 45 0 45 -95 0 -95 0 0 -45z"/>
<path d="M2460 855 l0 -45 95 0 95 0 0 45 0 45 -95 0 -95 0 0 -45z"/>
<path d="M2667 893 c-4 -3 -7 -24 -7 -45 l0 -38 95 0 95 0 0 45 0 45 -88 0
c-49 0 -92 -3 -95 -7z"/>
<path d="M3057 894 c-4 -4 -7 -25 -7 -46 l0 -38 96 0 95 0 -3 43 -3 42 -85 3
c-47 1 -89 0 -93 -4z"/>
<path d="M3250 855 l0 -45 95 0 95 0 0 45 0 45 -95 0 -95 0 0 -45z"/>
<path d="M3450 855 l0 -45 96 0 95 0 -3 43 -3 42 -92 3 -93 3 0 -46z"/>
<path d="M3657 893 c-4 -3 -7 -24 -7 -45 l0 -38 95 0 95 0 0 45 0 45 -88 0
c-49 0 -92 -3 -95 -7z"/>
<path d="M4040 855 l0 -45 96 0 95 0 -3 43 -3 42 -92 3 -93 3 0 -46z"/>
<path d="M4247 894 c-4 -4 -7 -25 -7 -46 l0 -38 96 0 95 0 -3 43 -3 42 -85 3
c-47 1 -89 0 -93 -4z"/>
<path d="M4440 855 l0 -45 95 0 95 0 0 45 0 45 -95 0 -95 0 0 -45z"/>
<path d="M1760 755 l0 -45 50 0 50 0 0 -45 0 -45 90 0 90 0 0 45 0 45 150 0
150 0 0 45 0 44 -191 1 -191 0 4 -45 c2 -26 -1 -45 -7 -45 -6 0 -9 19 -7 45
l4 45 -96 0 -96 0 0 -45z"/>
<path d="M2560 755 l0 -45 90 0 90 0 0 45 0 45 -90 0 -90 0 0 -45z"/>
<path d="M2750 755 l0 -45 53 0 52 0 -3 -45 -4 -45 96 0 96 0 0 45 0 45 50 0
50 0 0 45 0 46 -92 -3 -93 -3 -3 -34 c-2 -20 2 -37 10 -42 9 -6 3 -8 -17 -8
-16 0 -24 3 -17 6 7 2 12 22 12 44 l0 39 -95 0 -95 0 0 -45z"/>
<path d="M3150 755 l0 -45 90 0 90 0 0 45 0 45 -90 0 -90 0 0 -45z"/>
<path d="M3552 757 l3 -42 143 -3 142 -3 0 -44 0 -45 96 0 96 0 -4 45 -3 45
52 0 53 0 0 45 0 46 -92 -3 -93 -3 -3 -34 c-2 -20 2 -37 10 -42 9 -6 8 -9 -7
-9 -18 0 -20 5 -17 45 l4 45 -192 0 -191 -1 3 -42z"/>
<path d="M4140 755 l0 -45 90 0 90 0 0 45 0 45 -90 0 -90 0 0 -45z"/>
<path d="M2250 655 l0 -45 95 0 95 0 0 45 0 45 -95 0 -95 0 0 -45z"/>
<path d="M2450 655 l0 -45 90 0 90 0 0 45 0 45 -90 0 -90 0 0 -45z"/>
<path d="M3242 658 l3 -43 93 -3 92 -3 0 46 0 45 -96 0 -95 0 3 -42z"/>
<path d="M3442 658 l3 -43 93 -3 92 -3 0 46 0 45 -96 0 -95 0 3 -42z"/>
<path d="M4232 658 l3 -43 93 -3 92 -3 0 46 0 45 -96 0 -95 0 3 -42z"/>
<path d="M4430 655 l0 -45 95 0 95 0 0 45 0 45 -95 0 -95 0 0 -45z"/>
<path d="M1957 603 c-4 -3 -7 -24 -7 -45 l0 -38 95 0 95 0 0 45 0 45 -88 0
c-49 0 -92 -3 -95 -7z"/>
<path d="M2957 603 c-4 -3 -7 -24 -7 -45 l0 -38 90 0 90 0 0 45 0 45 -83 0
c-46 0 -87 -3 -90 -7z"/>
<path d="M3940 565 l0 -45 90 0 90 0 0 45 0 45 -90 0 -90 0 0 -45z"/>
<path d="M2560 555 l0 -45 90 0 90 0 0 45 0 45 -90 0 -90 0 0 -45z"/>
<path d="M3552 558 l3 -43 93 -3 92 -3 0 46 0 45 -96 0 -95 0 3 -42z"/>
<path d="M430 225 l0 -45 671 0 670 0 -3 43 -3 42 -667 3 -668 2 0 -45z"/>
</g>
</svg>
